<?xml version="1.0" standalone="no"?>
<!DOCTYPE svg PUBLIC "-//W3C//DTD SVG 20010904//EN"
 "http://www.w3.org/TR/2001/REC-SVG-20010904/DTD/svg10.dtd">
<svg version="1.0" xmlns="http://www.w3.org/2000/svg"
 width="40.000000pt" height="40.000000pt" viewBox="0 0 40.000000 40.000000"
 preserveAspectRatio="xMidYMid meet">

<g transform="translate(0.000000,40.000000) scale(0.100000,-0.100000)"
fill="#000000" stroke="none">
<path d="M23 333 c15 -4 17 -19 17 -125 0 -103 -3 -123 -17 -134 -16 -12 -13
-13 27 -13 40 0 43 1 27 13 -15 12 -17 28 -15 122 l3 108 51 -114 c29 -63 55
-114 60 -113 4 1 32 55 61 120 l52 118 1 -117 c0 -101 -2 -118 -18 -127 -13
-8 1 -10 53 -10 52 0 66 2 53 10 -16 9 -18 26 -18 134 0 109 2 124 18 128 9 3
-8 5 -39 6 l-56 1 -39 -90 c-21 -50 -41 -90 -44 -90 -3 0 -23 41 -44 90 l-40
90 -55 -1 c-31 -1 -48 -3 -38 -6z"/>
</g>
</svg>
